<svg width="176" height="176" xmlns="http://www.w3.org/2000/svg" xmlns:xlink="http://www.w3.org/1999/xlink" overflow="hidden"><defs><clipPath id="clip0"><rect x="116" y="308" width="176" height="176"/></clipPath></defs><g clip-path="url(#clip0)" transform="translate(-116 -308)"><path d="M251.3 370.355C251.524 370.117 269.875 350.7 288.333 330.955L288.333 325.585C269.023 346.263 248.874 367.583 248.669 367.8L241.767 374.698 246.427 379.362C229.3 395.553 215.733 399.808 215.733 399.808 213.304 414.908 207.342 429.221 198.333 441.58L201.481 444.73 182.598 447.632C182.589 447.635 182.58 447.63 182.577 447.621 182.576 447.618 182.576 447.614 182.577 447.61 183.63 444.768 184.704 440.643 183.557 437.598 182.991 436.047 181.781 434.818 180.238 434.229 176.034 432.579 169.625 437.303 164.624 441.998 164.617 442.005 164.607 442.005 164.6 441.999 164.596 441.994 164.594 441.988 164.596 441.982 165.129 439.911 165.035 437.729 164.329 435.712 163.548 433.894 161.935 432.567 160 432.153 155.917 431.125 150.294 435.605 144.204 442.312 144.199 442.32 144.189 442.323 144.181 442.318 144.173 442.314 144.17 442.303 144.175 442.295 149.209 431.678 153.191 418.968 146.831 412.61 142.248 408.027 133.774 407.882 120.924 412.166 119.962 412.486 119.442 413.525 119.762 414.487 120.082 415.449 121.121 415.97 122.083 415.65 133.329 411.902 140.783 411.752 144.239 415.208 151.95 422.919 138.081 446.516 133.525 454.271 132.733 455.616 132.152 456.612 131.875 457.151 131.258 458.015 131.458 459.216 132.323 459.833 132.35 459.853 132.378 459.872 132.406 459.89 132.708 460.11 133.066 460.241 133.439 460.268 134.333 460.268 135.153 459.21 137.126 456.661 151.31 438.352 156.911 435.167 159.107 435.717 159.935 435.84 160.639 436.385 160.966 437.155 162.145 439.905 159.745 445.914 157.96 449.051 157.46 449.932 157.769 451.051 158.65 451.55 159.408 451.98 160.364 451.817 160.937 451.159 167.33 443.775 176.001 436.515 178.904 437.646 179.484 437.853 179.938 438.314 180.135 438.898 181.076 441.38 179.288 446.488 177.936 449.125 177.474 450.026 177.831 451.131 178.732 451.592 179.075 451.768 179.466 451.831 179.848 451.772L204.268 448.015C204.395 447.985 204.518 447.941 204.634 447.883L208.767 452.014C221.123 443.003 235.433 437.039 250.532 434.608 250.532 434.608 254.703 420.955 270.882 403.819L275.683 408.612 276.979 407.328C277.08 407.229 282.557 401.828 288.346 396.182L288.346 391.065C283.378 395.901 278.103 401.086 275.707 403.445L273.428 401.177 273.428 401.177 249.082 376.807 249.072 376.816 246.957 374.698ZM247.817 431.356C233.973 433.907 220.812 439.317 209.176 447.238L207.425 445.487 231.19 421.722C233.037 422.511 235.177 422.099 236.599 420.68L236.599 420.68C238.521 418.761 238.523 415.646 236.603 413.724 234.683 411.802 231.569 411.8 229.646 413.72 228.225 415.14 227.81 417.281 228.598 419.129L204.836 442.893 203.113 441.17C211.036 429.525 216.445 416.357 218.995 402.505 223.65 400.613 235.253 395.023 249.036 381.971L268.286 401.221C255.231 415.006 249.694 426.666 247.817 431.356Z" stroke="#AFABAB" stroke-width="2.75" fill="#AFABAB"/></g></svg>