<svg width="534" height="535" xmlns="http://www.w3.org/2000/svg" xmlns:xlink="http://www.w3.org/1999/xlink" overflow="hidden"><defs><clipPath id="clip0"><rect x="3525" y="216" width="534" height="535"/></clipPath></defs><g clip-path="url(#clip0)" transform="translate(-3525 -216)"><path d="M3675.23 493.028 3636.31 649.028 3947.69 649.028 3908.77 493.028ZM3792 331.523C3749.01 331.523 3714.15 366.444 3714.15 409.523 3714.15 452.601 3749.01 487.523 3792 487.523 3834.99 487.523 3869.85 452.601 3869.85 409.523 3869.85 366.444 3834.99 331.523 3792 331.523ZM3792 230C3931.73 230 4045 343.496 4045 483.5 4045 623.504 3931.73 737 3792 737 3652.27 737 3539 623.504 3539 483.5 3539 343.496 3652.27 230 3792 230Z" stroke="#AFABAB" stroke-width="27.5" stroke-miterlimit="8" fill="#AFABAB" fill-rule="evenodd"/></g></svg>